<svg xmlns="http://www.w3.org/2000/svg" width="26" height="32" viewBox="0 0 26 32" class="api-features__icon"><path d="M12.8 3.2c-7.093 0-12.8 5.707-12.8 12.8s5.707 12.8 12.8 12.8c7.093 0 12.8-5.707 12.8-12.8s-5.707-12.8-12.8-12.8zm0 24.533c-6.453 0-11.733-5.28-11.733-11.733s5.28-11.733 11.733-11.733 11.733 5.28 11.733 11.733-5.28 11.733-11.733 11.733zM19.467 19.04c-.267-.107-.587-.053-.693.213-1.173 2.293-3.467 3.68-5.973 3.68-2.56 0-4.8-1.387-5.973-3.68-.107-.267-.427-.373-.693-.213-.267.107-.373.427-.267.693 1.333 2.613 3.947 4.267 6.933 4.267 2.933 0 5.6-1.653 6.88-4.267.16-.267.053-.587-.213-.693zM10.133 13.333c0 .884-.716 1.6-1.6 1.6s-1.6-.716-1.6-1.6c0-.884.716-1.6 1.6-1.6s1.6.716 1.6 1.6zM18.667 13.333c0 .884-.716 1.6-1.6 1.6s-1.6-.716-1.6-1.6c0-.884.716-1.6 1.6-1.6s1.6.716 1.6 1.6z"/></svg>