<svg xmlns="http://www.w3.org/2000/svg" width="32" height="32" viewBox="0 0 32 32" class="api-stats__icon"><path d="M28.913 18.191s-1.631-.37-1.631-2.488c0-1.86.561-2.516.891-2.968 0 0 .633-.643.177-2.511.372-.817 1.131-2.443.494-3.94-.735-1.783-1.221-2.252-2.385-2.759-.398-.254-1.395-.616-2.447-.616-.497 0-1.003.089-1.467.3.185.471.342.937.455 1.396l.056-.035c.248-.137.57-.207.956-.207.752 0 1.486.273 1.665.388l.2.106c.716.313.984.429 1.623 1.98.385.904-.164 2.105-.458 2.751-.136.297-.182.662-.105.98.199.816.106 1.197.075 1.291l-.013.017-.049.066c-.392.531-1.122 1.519-1.122 3.759 0 2.503 1.683 3.611 2.66 3.88.928.332 1.786.854 2.004 2.236l-3.145.001c.279.428.508.915.683 1.455l3.243-.001c.727 0 .727-.727.727-.727 0-2.909-1.764-3.893-3.087-4.356zm-22.31 6.539c.34-2.048 2.133-2.866 3.966-3.524l.057-.02c1.308-.348 3.635-1.743 3.635-4.737 0-2.54-1.029-3.779-1.582-4.445l-.213-.269c-.046-.098-.263-.668.052-1.994.147-.622-.103-.961-.103-.961-.396-.894-1.135-2.556-.58-3.9.743-1.857 1.401-2.224 2.596-2.761l.201-.109c.226-.148 1.181-.554 2.263-.554.539 0 .994.103 1.354.308.433.244.847.709 1.473 2.203 1.169 2.665.428 4.154.055 4.671-.246.343-.332.775-.235 1.185.289 1.221.101 1.736.053 1.839l-.274.343c-.553.666-1.583 1.905-1.583 4.445 0 2.995 2.327 4.39 3.635 4.737l.057.02c1.833.657 3.626 1.476 3.966 3.524h-18.794zm15.197-4.937s-2.607-.621-2.607-3.345c0-2.392 1.071-3.234 1.484-3.816 0 0 .849-.744.28-3.146.948-1.316 1.257-3.46.096-6.105-.647-1.546-1.218-2.393-2.089-2.885-.639-.362-1.365-.496-2.07-.496-1.315 0-2.561.465-3.059.791-1.455.654-2.433 1.255-3.351 3.548-.796 1.927.151 4.016.618 5.066-.569 2.402.22 3.228.22 3.228.414.582 1.484 1.424 1.484 3.816 0 2.724-2.606 3.345-2.606 3.345-1.655.596-5.11 1.737-5.11 5.664 0 0 0 .727.727.727h20.364c.727 0 .727-.727.727-.727 0-3.927-3.455-5.068-5.109-5.664zm-18.288-.21c.977-.269 2.66-1.377 2.66-3.88 0-2.241-.729-3.228-1.122-3.759l-.049-.066-.013-.017c-.031-.094-.124-.475.075-1.291.077-.318.031-.683-.105-.98-.295-.646-.843-1.847-.457-2.751.639-1.551.906-1.668 1.622-1.98l.2-.106c.18-.115.913-.388 1.665-.388.362 0 .663.067.904.188.063-.25.138-.501.242-.753.089-.222.182-.412.274-.61-.451-.196-.94-.279-1.42-.279-1.052 0-2.049.362-2.447.616-1.164.508-1.651.977-2.385 2.759-.637 1.497.121 3.123.495 3.94-.455 1.868.177 2.511.177 2.511.33.452.891 1.108.891 2.968 0 2.118-1.631 2.488-1.631 2.488-1.324.463-3.087 1.447-3.087 4.356 0 0 0 .727.727.727l3.244.001c.174-.54.404-1.027.683-1.455l-3.146-.001c.218-1.383 1.076-1.904 2.004-2.236z"/></svg>