<svg xmlns="http://www.w3.org/2000/svg" width="32" height="32" viewBox="0 0 32 32" class="api-features__icon"><path d="M20.462 10.824l-9.265 9.196.753.756 9.265-9.196zm-13.525 11.04c-3.234 0-5.864-2.631-5.864-5.864s2.631-5.864 5.864-5.864c1.566 0 2.987.621 4.04 1.624l.001-.006.054.047 2.076 2.066h-1.905v1.066h3.732v-3.732h-1.066v1.918l-2.084-2.074-.005.005c-1.251-1.224-2.959-1.982-4.842-1.982-3.821 0-6.931 3.109-6.931 6.931s3.109 6.931 6.931 6.931c1.971 0 3.747-.831 5.011-2.156l-.753-.754c-1.07 1.132-2.581 1.844-4.258 1.844zm18.126-12.795c-1.765 0-3.373.668-4.597 1.759l.753.753c1.03-.898 2.373-1.446 3.844-1.446 3.234 0 5.864 2.631 5.864 5.864s-2.631 5.864-5.864 5.864c-1.56 0-2.976-.616-4.028-1.613l-.002.01-3.531-3.518-.757.751 3.535 3.522.006-.006c1.245 1.187 2.925 1.921 4.776 1.921 3.821 0 6.931-3.109 6.931-6.931s-3.109-6.931-6.931-6.931z"/></svg>