<svg xmlns="http://www.w3.org/2000/svg" width="189" height="189" class="api-callout__icon">
  <path d="M154.08 114c-3.657-6.313-8.052-12.874-13.08-19.542 5.002-6.628 9.44-13.172 13.08-19.458C171.244 79.861 182 86.791 182 94.498c0 7.711-10.756 14.64-27.92 19.502m-.72 41.361c-5.207 5.203-17.295 2.464-32.36-6.03 1.747-6.767 3.193-14.157 4.244-22.087 7.93-1.051 15.324-2.497 22.087-4.244 8.497 15.065 11.232 27.15 6.03 32.361M134.011 100A194.733 194.733 0 0 1 144 114.115c-5.252 1.144-10.938 2.121-17 2.885.298-3.145.507-6.375.695-9.627 2.2-2.453 4.284-4.915 6.317-7.373m-.017-11a247.288 247.288 0 0 0-6.3-7.341c-.188-3.264-.397-6.502-.695-9.659 6.062.762 11.748 1.739 17 2.891-2.899 4.54-6.27 9.273-10.005 14.109m19.365-55.361c5.203 5.207 2.468 17.296-6.03 32.361-6.762-1.747-14.157-3.193-22.086-4.244-1.051-7.93-2.497-15.324-4.244-22.088 15.065-8.493 27.153-11.232 32.36-6.03m-32.603 72.065a275.626 275.626 0 0 1-7.375 7.683 295.702 295.702 0 0 1-7.679 7.38c-3.518.126-7.067.234-10.703.234-3.64 0-7.189-.108-10.703-.234a289.011 289.011 0 0 1-7.683-7.38 288.794 288.794 0 0 1-7.376-7.683C69.104 102.19 69 98.64 69 95c0-3.636.104-7.185.238-10.703a302.567 302.567 0 0 1 7.376-7.679 282.274 282.274 0 0 1 7.683-7.38C87.81 69.113 91.36 69 95 69c3.636 0 7.185.113 10.703.238a288.65 288.65 0 0 1 7.679 7.38 288.14 288.14 0 0 1 7.375 7.679c.135 3.518.243 7.067.243 10.703 0 3.64-.108 7.189-.243 10.703M114.115 144A195.796 195.796 0 0 1 100 134.008a237.353 237.353 0 0 0 7.371-6.313c3.252-.188 6.483-.397 9.629-.695-.764 6.062-1.741 11.748-2.885 17M94.5 182c-7.706 0-14.64-10.752-19.5-27.919 6.285-3.644 12.828-8.083 19.456-13.081 6.667 5.029 13.227 9.42 19.544 13.081C109.135 171.248 102.201 182 94.5 182M72 127c3.155.298 6.396.507 9.658.695a241.122 241.122 0 0 0 7.342 6.3c-4.838 3.73-9.568 7.102-14.106 10.005-1.147-5.252-2.123-10.938-2.894-17m2.885-82A191.332 191.332 0 0 1 89 54.992a241.793 241.793 0 0 0-7.371 6.317c-3.252.184-6.483.393-9.629.691.768-6.062 1.741-11.748 2.885-17M94.5 7c7.701 0 14.635 10.76 19.5 27.92-6.285 3.644-12.833 8.082-19.46 13.08-6.663-5.024-13.228-9.419-19.54-13.08C79.86 17.76 86.794 7 94.5 7M117 62c-3.156-.298-6.397-.507-9.66-.69a235.387 235.387 0 0 0-7.34-6.305c4.835-3.734 9.57-7.106 14.105-10.005 1.148 5.252 2.129 10.938 2.895 17m-55.245-.244c-7.929 1.051-15.32 2.497-22.088 4.244-8.493-15.065-11.232-27.154-6.025-32.361 5.203-5.203 17.292-2.464 32.358 6.03-1.747 6.763-3.193 14.157-4.245 22.087M33.642 155.36c-5.207-5.211-2.468-17.296 6.025-32.361 6.768 1.747 14.159 3.193 22.088 4.244 1.052 7.93 2.498 15.32 4.245 22.088-15.066 8.493-27.155 11.232-32.358 6.03M62 117c-6.062-.766-11.748-1.747-17-2.895 2.903-4.539 6.275-9.27 10.005-14.105a246.592 246.592 0 0 0 6.304 7.34c.184 3.263.393 6.504.691 9.66m-.69-35.375A227.317 227.317 0 0 0 54.991 89 195.836 195.836 0 0 1 45 74.881C50.252 73.733 55.938 72.76 62 72c-.298 3.146-.507 6.368-.69 9.625M7 94.498C7 86.79 17.757 79.86 34.919 75 38.58 81.313 42.97 87.874 48 94.542c-4.998 6.624-9.437 13.176-13.081 19.458C17.757 109.139 7 102.209 7 94.498m182 .002c0-10.292-12.487-19.506-32.22-25.79 9.488-18.397 11.82-33.75 4.54-41.03-7.276-7.277-22.633-4.948-41.026 4.54C114.006 12.487 104.792 0 94.5 0 84.204 0 74.994 12.487 68.706 32.22c-18.393-9.488-33.75-11.817-41.03-4.54-7.277 7.28-4.944 22.633 4.544 41.03C12.483 74.994 0 84.208 0 94.5c0 10.296 12.483 19.506 32.22 25.794-9.488 18.398-11.82 33.75-4.544 41.03 7.28 7.273 22.637 4.944 41.03-4.54C74.994 176.517 84.204 189 94.5 189c10.292 0 19.506-12.483 25.794-32.216 18.393 9.484 33.75 11.813 41.026 4.54 7.28-7.28 4.948-22.632-4.54-41.03C176.513 114.006 189 104.796 189 94.5M95.5 87c-4.696 0-8.5 3.812-8.5 8.5a8.5 8.5 0 0 0 17 0c0-4.688-3.808-8.5-8.5-8.5" fill="#EBEBEB" fill-rule="evenodd"/>
</svg>