<svg xmlns="http://www.w3.org/2000/svg" viewBox="0 0 24 24" class="footer-social-icon">
  <path d="M12 4.6c2.4 0 2.7 0 3.7.1.9 0 1.3.2 1.6.3.4.2.7.3 1 .7.3.3.5.6.7 1 .1.3.3.8.3 1.6.1 1 .1 1.2.1 3.7s0 2.7-.1 3.7c-.1.9-.2 1.4-.3 1.7-.2.4-.3.7-.7 1-.3.3-.6.5-1 .7-.3.1-.8.3-1.7.3-1 .1-1.2.1-3.7.1s-2.7 0-3.7-.1c-.9-.1-1.3-.2-1.7-.3-.4-.2-.7-.3-1-.7-.3-.3-.5-.6-.7-1-.1-.3-.2-.8-.2-1.7-.1-1-.1-1.2-.1-3.7s0-2.7.1-3.7c.1-.8.3-1.3.4-1.6.2-.4.3-.7.7-1 .3-.3.6-.5 1-.7.3-.1.8-.3 1.6-.3 1-.1 1.3-.1 3.7-.1M12 3c-2.4 0-2.8 0-3.7.1-1 .1-1.6.2-2.2.4-.6.2-1.1.5-1.6 1s-.8 1-1 1.6c-.3.6-.4 1.2-.4 2.2C3 9.2 3 9.6 3 12s0 2.8.1 3.7c.1 1 .2 1.6.4 2.2.2.6.6 1.1 1 1.6.5.5 1 .8 1.6 1 .6.2 1.2.4 2.2.4.9.1 1.3.1 3.7.1s2.8 0 3.7-.1c1-.1 1.6-.2 2.2-.4.6-.2 1.1-.6 1.6-1 .5-.5.8-1 1-1.6.2-.6.4-1.2.4-2.2.1-1 .1-1.4.1-3.8s0-2.8-.1-3.7c-.1-1-.2-1.6-.4-2.2-.2-.6-.6-1.1-1-1.6-.5-.5-1-.8-1.6-1-.6-.2-1.2-.4-2.2-.4H12zm0 4.4c-2.5 0-4.6 2.1-4.6 4.6s2.1 4.6 4.6 4.6 4.6-2.1 4.6-4.6-2.1-4.6-4.6-4.6zm0 7.6c-1.6 0-3-1.4-3-3s1.4-3 3-3 3 1.4 3 3-1.4 3-3 3zm4.8-8.9c-.6 0-1.1.5-1.1 1.1s.5 1.1 1.1 1.1 1.1-.5 1.1-1.1-.5-1.1-1.1-1.1z"/>
</svg>