<svg xmlns="http://www.w3.org/2000/svg" class="api-sdk__logo" viewBox="0 0 120 120">
                        <path class="st0" d="M49.1 60.4c.7-3.7.2-6.7-1.7-8.8-1.8-2.1-4.8-3.2-8.7-3.2h-12.5c-.3 0-.5.2-.6.5l-5.8 29.8c0 .2 0 .4.1.5.1.1.3.2.5.2h6.5c.3 0 .5-.2.6-.5l1.4-7.4h5.1c2.5 0 4.6-.3 6.3-.8 1.7-.5 3.2-1.5 4.6-2.7 1.1-1 2.1-2.2 2.8-3.5.6-1.2 1.1-2.6 1.4-4.1zm-7.9-.7c-.4 2.1-1.2 3.7-2.4 4.6-1.2.9-3 1.4-5.5 1.4h-3.2l2.2-11.3h3.9c2.3 0 3.8.4 4.5 1.2.7.7.9 2.1.5 4.1zM71.2 71.1l2.7-13.9c.6-3 .1-5.3-1.4-6.7-1.5-1.4-4.1-2.1-7.9-2.1h-5l1.4-7.2c0-.2 0-.4-.1-.5-.1-.1-.3-.2-.5-.2h-6.4c-.3 0-.5.2-.6.5l-5.8 29.8c0 .2 0 .4.1.5.1.1.3.2.5.2h6.4c.3 0 .5-.2.6-.5l3.2-16.6h4.6c1.9 0 2.6.4 2.8.6.4.4.4 1.3.2 2.5l-2.6 13.2c0 .2 0 .4.1.5.1.1.3.2.5.2h6.6c.3.2.5 0 .6-.3zM98.2 51.6c-1.8-2.1-4.8-3.2-8.7-3.2h-12.5c-.3 0-.5.2-.6.5l-5.8 29.8c0 .2 0 .4.1.5.1.1.3.2.5.2h6.5c.3 0 .5-.2.6-.5l1.4-7.4h5.1c2.5 0 4.6-.3 6.3-.8 1.7-.5 3.2-1.5 4.6-2.7 1.1-1 2.1-2.2 2.8-3.5.7-1.3 1.2-2.7 1.5-4.2.6-3.6 0-6.6-1.8-8.7zm-6.3 8.1c-.4 2.1-1.2 3.7-2.4 4.6-1.2.9-3 1.4-5.5 1.4h-3.2l2.2-11.3h4c2.3 0 3.8.4 4.5 1.2.7.7.8 2.1.4 4.1z"/>
                      </svg>