<svg width="352" height="352" xmlns="http://www.w3.org/2000/svg" xmlns:xlink="http://www.w3.org/1999/xlink">
  <defs>
    <path id="a" d="M0 0h352v352H0z"/>
    <path d="M25.639 0h98.722c8.915 0 12.148.928 15.407 2.671a18.173 18.173 0 0 1 7.56 7.56c1.744 3.26 2.672 6.493 2.672 15.408V289.36c0 8.915-.928 12.148-2.671 15.407a18.173 18.173 0 0 1-7.56 7.56c-3.26 1.744-6.493 2.672-15.408 2.672H25.64c-8.915 0-12.148-.928-15.407-2.671a18.173 18.173 0 0 1-7.56-7.56C.927 301.508 0 298.275 0 289.36V25.64c0-8.915.928-12.148 2.671-15.407a18.173 18.173 0 0 1 7.56-7.56C13.492.927 16.725 0 25.64 0z" id="c"/>
    <linearGradient x1="50%" y1="0%" x2="50%" y2="100%" id="e">
      <stop stop-color="#FFF" offset="0%"/>
      <stop stop-color="#F1F2F3" offset="100%"/>
    </linearGradient>
    <path d="M122.195 297.762H27.911c-.883 0-3.631-.02-4.153-.02-1.384-.043-2.769-.127-4.132-.358-1.385-.253-2.664-.652-3.922-1.305a13.201 13.201 0 0 1-5.79-5.807c-.65-1.262-1.048-2.546-1.3-3.934-.252-1.368-.336-2.756-.357-4.145-.02-.631-.02-1.915-.02-1.915V27.808s.02-3.926.02-4.165c.042-1.389.126-2.778.357-4.145.251-1.389.65-2.672 1.3-3.935a13.207 13.207 0 0 1 5.79-5.807c1.258-.652 2.537-1.052 3.922-1.304 1.363-.252 3.695-.333 4.16-.333h11.869c1.729 0 2.215 1.14 2.26 2.354.036.943.161 1.905.413 2.811.84 3.037 3.421 5.108 6.6 5.375.787.066 2.335.122 2.335.122h55.474s1.548-.02 2.335-.086c3.179-.268 5.76-2.338 6.6-5.374.252-.907.377-1.869.412-2.811.046-1.214.532-2.391 2.261-2.391h11.87c.463 0 2.796.117 4.16.37 1.384.253 2.663.652 3.922 1.304a13.204 13.204 0 0 1 5.789 5.806c.65 1.263 1.049 2.546 1.3 3.934.231 1.368.315 2.756.357 4.145 0 .24.02 4.165.02 4.165v252.438s0 1.283-.02 1.914c-.021 1.389-.105 2.777-.357 4.144-.252 1.389-.65 2.672-1.3 3.934a13.201 13.201 0 0 1-5.79 5.806c-1.258.653-2.537 1.052-3.922 1.305-1.363.23-2.748.315-4.132.357-.522 0-3.27.021-4.153.021" id="d"/>
    <linearGradient x1="50%" y1="0%" x2="50%" y2="100%" id="h">
      <stop stop-color="#FFF" offset="0%"/>
      <stop stop-color="#E8E9EB" stop-opacity=".253" offset="100%"/>
    </linearGradient>
    <path d="M122.195 297.762H27.911c-.883 0-3.631-.02-4.153-.02-1.384-.043-2.769-.127-4.132-.358-1.385-.253-2.664-.652-3.922-1.305a13.201 13.201 0 0 1-5.79-5.807c-.65-1.262-1.048-2.546-1.3-3.934-.252-1.368-.336-2.756-.357-4.145-.02-.631-.02-1.915-.02-1.915V27.808s.02-3.926.02-4.165c.042-1.389.126-2.778.357-4.145.251-1.389.65-2.672 1.3-3.935a13.207 13.207 0 0 1 5.79-5.807c1.258-.652 2.537-1.052 3.922-1.304 1.363-.252 3.695-.333 4.16-.333h11.869c1.729 0 2.215 1.14 2.26 2.354.036.943.161 1.905.413 2.811.84 3.037 3.421 5.108 6.6 5.375.787.066 2.335.122 2.335.122h55.474s1.548-.02 2.335-.086c3.179-.268 5.76-2.338 6.6-5.374.252-.907.377-1.869.412-2.811.046-1.214.532-2.391 2.261-2.391h11.87c.463 0 2.796.117 4.16.37 1.384.253 2.663.652 3.922 1.304a13.204 13.204 0 0 1 5.789 5.806c.65 1.263 1.049 2.546 1.3 3.934.231 1.368.315 2.756.357 4.145 0 .24.02 4.165.02 4.165v252.438s0 1.283-.02 1.914c-.021 1.389-.105 2.777-.357 4.144-.252 1.389-.65 2.672-1.3 3.934a13.201 13.201 0 0 1-5.79 5.806c-1.258.653-2.537 1.052-3.922 1.305-1.363.23-2.748.315-4.132.357-.522 0-3.27.021-4.153.021" id="g"/>
    <path d="M15.383 0h121.234c5.349 0 7.289.557 9.244 1.603a10.904 10.904 0 0 1 4.536 4.536c1.046 1.955 1.603 3.895 1.603 9.244v233.234c0 5.349-.557 7.289-1.603 9.244a10.904 10.904 0 0 1-4.536 4.536c-1.955 1.046-3.895 1.603-9.244 1.603H15.383c-5.349 0-7.289-.557-9.244-1.603a10.904 10.904 0 0 1-4.536-4.536C.557 255.906 0 253.966 0 248.617V15.383c0-5.349.557-7.289 1.603-9.244a10.904 10.904 0 0 1 4.536-4.536C8.094.557 10.034 0 15.383 0z" id="j"/>
    <filter x="-11.2%" y="-6.4%" width="132.9%" height="118.9%" filterUnits="objectBoundingBox" id="i">
      <feOffset dx="8" dy="8" in="SourceAlpha" result="shadowOffsetOuter1"/>
      <feGaussianBlur stdDeviation="7" in="shadowOffsetOuter1" result="shadowBlurOuter1"/>
      <feColorMatrix values="0 0 0 0 0 0 0 0 0 0 0 0 0 0 0 0 0 0 0.08 0" in="shadowBlurOuter1"/>
    </filter>
    <path d="M15.692 13h120.616c2.675 0 3.645.278 4.623.801a5.452 5.452 0 0 1 2.268 2.268c.523.978.801 1.948.801 4.623v235.616c0 2.675-.278 3.645-.801 4.623a5.452 5.452 0 0 1-2.268 2.268c-.978.523-1.948.801-4.623.801H15.692c-2.675 0-3.645-.278-4.623-.801a5.452 5.452 0 0 1-2.268-2.268c-.523-.978-.801-1.948-.801-4.623V20.692c0-2.675.278-3.645.801-4.623a5.452 5.452 0 0 1 2.268-2.268c.978-.523 1.948-.801 4.623-.801z" id="k"/>
    <linearGradient x1="50%" y1="0%" x2="50%" y2="100%" id="l">
      <stop stop-color="#FFF" offset="0%"/>
      <stop stop-color="#E8E9EB" offset="100%"/>
    </linearGradient>
  </defs>
  <g fill="none" fill-rule="evenodd">
    <mask id="b" fill="#fff">
      <use xlink:href="#a"/>
    </mask>
    <g mask="url(#b)">
      <g transform="translate(165 96)">
        <use fill="#F2DADA" xlink:href="#c"/>
        <use fill="#AFB9C4" xlink:href="#c"/>
        <use fill="#E7EAED" xlink:href="#c"/>
        <mask id="f" fill="#fff">
          <use xlink:href="#d"/>
        </mask>
        <use fill="url(#e)" xlink:href="#d"/>
        <use fill="#FFF" xlink:href="#d"/>
        <g mask="url(#f)">
          <path fill="#F2F4F6" d="M78 25h58v42H78z"/>
          <path fill="#F6F7F8" d="M78 158h58v42H78z"/>
          <path fill="#E7EAED" opacity=".378" d="M14 243h58v42H14z"/>
          <path fill="#E7EBEE" opacity=".434" d="M14 110h58v42H14z"/>
          <path fill="#F6F7F8" d="M14 25h58v79H14z"/>
          <path fill="#F8F9FA" d="M78 73h58v79H78z"/>
          <path fill="#E8EBEE" opacity=".347" d="M14 158h58v79H14z"/>
          <path fill="#F7F7F8" d="M78 206h58v79H78z"/>
        </g>
        <use fill="url(#h)" opacity=".401" xlink:href="#g"/>
      </g>
    </g>
    <g mask="url(#b)">
      <g transform="translate(70 165)">
        <use fill="#000" filter="url(#i)" xlink:href="#j"/>
        <use fill="#DADEE3" xlink:href="#j"/>
      </g>
      <g transform="translate(70 165)">
        <use fill="url(#e)" xlink:href="#k"/>
        <use fill="#FFF" xlink:href="#k"/>
      </g>
      <path d="M84 184h59v43H84v-43z" fill-opacity=".96" fill="#DADEE3"/>
      <path d="M84 233h59v43H84v-43zM149 271h59v43h-59v-43z" fill-opacity=".5" fill="#DADEE3"/>
      <path d="M149 184h59v81h-59v-81z" fill-opacity=".91" fill="#DADEE3"/>
      <path d="M84 282h59v81H84v-81z" fill-opacity=".5" fill="#DADEE3"/>
      <path d="M149 320h59v81h-59v-81z" fill-opacity=".3" fill="#DADEE3"/>
      <path d="M15.692 13h120.616c2.675 0 3.645.278 4.623.801a5.452 5.452 0 0 1 2.268 2.268c.523.978.801 1.948.801 4.623V187H8V20.692c0-2.675.278-3.645.801-4.623a5.452 5.452 0 0 1 2.268-2.268c.978-.523 1.948-.801 4.623-.801z" fill="url(#l)" opacity=".371" transform="translate(70 165)"/>
    </g>
  </g>
</svg>
