<svg xmlns="http://www.w3.org/2000/svg" width="32" height="32" viewBox="0 0 32 32" class="api-stats__icon"><path d="M27.302 20.93c-2.055-1.035-3.928-2.378-5.548-3.983.785-1.218 1.452-2.52 2-3.881l.246.025c1.204 0 2.182-.977 2.182-2.182 0-.854-.495-1.585-1.209-1.943.262-1.307.427-2.649.461-4.025 3.125 2.668 5.112 6.628 5.112 11.059 0 1.428-.222 2.799-.607 4.1-.861.319-1.74.597-2.637.83m-11.302 9.615c-3.547 0-6.796-1.273-9.319-3.383 3.027-.594 5.838-1.777 8.324-3.413.3.155.635.251.996.251.7 0 1.317-.336 1.716-.849.873.079 1.754.122 2.647.122 2.337 0 4.602-.298 6.78-.82.502.239 1.002.48 1.523.684-2.496 4.42-7.228 7.409-12.666 7.409m-10.757-4.78c-.094-.819-.152-1.649-.152-2.493 0-1.401.148-2.767.401-4.094 2.589 1.544 5.437 2.697 8.465 3.378l.039.121c-2.553 1.649-5.462 2.793-8.599 3.257l-.153-.169m-.687-8.924c-1.058-.74-2.063-1.552-3.006-2.43.714-6.561 5.791-11.801 12.273-12.777.007.777.048 1.547.129 2.305-1.253.841-2.415 1.807-3.479 2.869-.305-.163-.648-.263-1.018-.263-1.204 0-2.182.977-2.182 2.182 0 .511.183.975.477 1.346-1.41 2.043-2.49 4.326-3.194 6.769m-.903 6.821c-1.337-2.151-2.135-4.669-2.188-7.375.861.737 1.765 1.423 2.709 2.057-.344 1.59-.537 3.236-.537 4.928l.017.391m16.24-6.567c-.772 1.072-1.649 2.06-2.599 2.974-.363-.27-.807-.434-1.295-.434-.939 0-1.732.596-2.04 1.428-2.916-.693-5.653-1.845-8.129-3.38.656-2.475 1.724-4.783 3.147-6.83.154.033.312.055.476.055 1.204 0 2.182-.977 2.182-2.182 0-.301-.061-.589-.172-.85.842-.844 1.75-1.625 2.721-2.324.783 4.406 2.82 8.368 5.708 11.543m-3.893-15.642c.811 0 1.601.083 2.375.211-1.047.409-2.071.863-3.036 1.417-.039-.527-.064-1.056-.065-1.592.242-.012.481-.036.726-.036m4.919 16.711c1.276 1.238 2.711 2.308 4.246 3.227-1.56.275-3.162.426-4.801.426-.74 0-1.47-.037-2.194-.095-.007-.141-.021-.279-.053-.412 1.025-.961 1.965-2.012 2.803-3.146m3.063-14.318l.017.516c0 1.513-.161 2.987-.454 4.412-.987.209-1.728 1.084-1.728 2.133 0 .594.239 1.131.624 1.524-.476 1.194-1.044 2.341-1.714 3.42-2.715-3.084-4.589-6.928-5.218-11.185 1.66-1.02 3.473-1.804 5.388-2.351 1.094.392 2.13.901 3.085 1.529m-7.983-3.847c-8.836 0-16 7.163-16 16 0 8.836 7.164 16 16 16s16-7.164 16-16c0-8.837-7.164-16-16-16"/></svg>