<svg xmlns="http://www.w3.org/2000/svg" class="api-sdk__logo" viewBox="0 0 120 120">
                        <path class="st0" d="M44.6 68.6c0 4.4-1.8 5.6-4.7 5.6-3 0-4.3-2.1-5.7-4.5l-7.2 4.2c2.1 4.4 6.2 8.1 13.3 8.1 7.8 0 13.2-4.2 13.2-13.3v-30.2h-8.8v30.1zM27 73.9zM77.3 55.8l-2.3-.9c-3.8-1.6-5.4-2.7-5.4-5.4 0-2.1 1.6-3.8 4.2-3.8 2.5 0 4.2 1.1 5.7 3.8l6.9-4.4c-2.9-5.1-6.9-7.1-12.6-7.1-7.9 0-12.9 5.1-12.9 11.7 0 7.2 4.2 10.6 10.6 13.3l2.2.9c4 1.8 6.4 2.8 6.4 5.9 0 2.5-2.3 4.4-6 4.4-4.4 0-6.8-2.3-8.7-5.4l-7.1 4.2c2.6 5.1 7.9 9 16.1 9 8.3 0 14.6-4.4 14.6-12.3 0-7.4-4.2-10.7-11.7-13.9z"/>
                      </svg>