<svg xmlns="http://www.w3.org/2000/svg" width="32" height="32" viewBox="0 0 32 32" class="api-stats__icon"><path d="M24.727 29.091c0 .804-.652 1.455-1.455 1.455h-20.364c-.803 0-1.455-.652-1.455-1.455v-20.364c0-.803.652-1.455 1.455-1.455h20.364c.803 0 1.455.652 1.455 1.455v20.364zm-1.455-23.273h-20.364c-1.607 0-2.909 1.303-2.909 2.909v20.364c0 1.607 1.303 2.909 2.909 2.909h20.364c1.607 0 2.909-1.303 2.909-2.909v-20.364c0-1.607-1.303-2.909-2.909-2.909zm-16.823 20.364l4.468-6.702 2.23 3.345c.11.263.368.447.671.447.201 0 .383-.081.514-.213l2.257-2.257 3.227 5.379h-13.367zm15.316.457l-.004-.007-.025-.042-4.335-7.224-.002.001c-.108-.268-.367-.458-.673-.458-.201 0-.383.081-.514.213l-2.292 2.292-2.342-3.511c-.11-.263-.368-.448-.671-.448-.252 0-.463.136-.593.332l-.012-.008-5.818 8.727.012.008c-.078.115-.134.247-.134.396 0 .401.325.727.727.727h16c.402 0 .727-.325.727-.727 0-.096-.021-.186-.054-.269l.002-.001zm7.324-26.639h-20.364c-1.607 0-2.909 1.303-2.909 2.909v.727c0 .402.325.727.727.727.402 0 .727-.325.727-.727v-.727c0-.803.652-1.455 1.455-1.455h20.364c.803 0 1.455.652 1.455 1.455v20.364c0 .804-.652 1.455-1.455 1.455h-.727c-.402 0-.727.326-.727.727 0 .402.325.727.727.727h.727c1.607 0 2.909-1.303 2.909-2.909v-20.364c0-1.607-1.303-2.909-2.909-2.909zm-21.818 11.636c.803 0 1.455.652 1.455 1.455 0 .804-.652 1.455-1.455 1.455s-1.455-.651-1.455-1.455c0-.803.652-1.455 1.455-1.455zm0 4.364c1.607 0 2.909-1.302 2.909-2.909 0-1.607-1.303-2.909-2.909-2.909-1.607 0-2.909 1.303-2.909 2.909 0 1.607 1.303 2.909 2.909 2.909z"/></svg>